# xmcd
#
# Track frame offsets:
#	150
#	13195
#	27467
#	40862
#	62005
#	81245
#	101730
#	114895
#	124392
#	138565
#	152220
#	166650
#	182300
#	204460
#	217412
#	236115
#	274912
#	289262
#
# Disc length: 4043 seconds
#
# Revision: 1
# Processed by: cddbd v1.5.1PL0 Copyright (c) Steve Scherf et al.
# Submitted via: CDex 1.50Beta5
#
DISCID=0d0fc912
DTITLE=Various Artist - 決定版 感動の映画音楽
DYEAR=1999
DGENRE=Soundtrack
TTITLE0=ジョーン・バエズ/フォレスト・ガンプ
TTITLE1=ザ・レターメン/ゴースト・ニューヨークの幻
TTITLE2=ロン・パワー/プリティ・ウーマン
TTITLE3=ザ・レターメン/ボディガード
TTITLE4=ウィンディーズ/トップガン
TTITLE5=ザ・レターメン/愛と青春の旅立ち
TTITLE6=スクリーン・ポップス/ある愛の詩
TTITLE7=クレスツ/アメリカン・グラフィティー
TTITLE8=レオン・ポップス/ワンス・アポン・ア・タイム・イン・アメリカ
TTITLE9=ベン・E・キング/スタンド・バイ・ミー
TTITLE10=ラリー・ネルソン・オーケストラ/ロッキー
TTITLE11=ニール・ノーマン・オーケストラ/E.T.
TTITLE12=ザ・レターメン/スーパーマン
TTITLE13=パーシー・スレッジ/プラトーン
TTITLE14=オリジナル・サウンドトラック/白い恋人たち
TTITLE15=スタンリー・ブラック/80日間世界一周
TTITLE16=スタンリー・ブラック/栄光への脱出
TTITLE17=スタンリー・ブラック/避暑地の出来事
EXTD=
EXTT0=
EXTT1=
EXTT2=
EXTT3=
EXTT4=
EXTT5=
EXTT6=
EXTT7=
EXTT8=
EXTT9=
EXTT10=
EXTT11=
EXTT12=
EXTT13=
EXTT14=
EXTT15=
EXTT16=
EXTT17=
PLAYORDER=
